<svg id="Layer_1" data-name="Layer 1" xmlns="http://www.w3.org/2000/svg" xmlns:xlink="http://www.w3.org/1999/xlink" viewBox="0 0 1440 1200"><defs><style>.cls-1{fill:url(#linear-gradient);}</style><linearGradient id="linear-gradient" x1="692.91" y1="946.75" x2="697.86" y2="150.59" gradientUnits="userSpaceOnUse"><stop offset="0.16" stop-color="#a577b4"/><stop offset="0.59" stop-color="#e177af"/></linearGradient></defs><path class="cls-1" d="M734.41,546.08l-12.62-22-6.52-11.43-.9-1.56V511L712,507l-5.38-9.4-8.5-14.83-14.42-25.19.54,40.08-14.95-5,8.43,14.66,2.93,5.14,3.83,6.7v.06l7.18,12.56h.06l1.14,2,4.9,8.55,17.35,30.33-.42-33.2Zm-20.28-51-.48-38.64-15.49,26.32-9.63,16.33-3.35,5.74-.84,1.32v.06l-3.65,6.22-7.65,13-11,18.73,22.73-7.66.36,27.34,12.68-21.48,4.19-7.18,3.29-5.56,9.09-15.43v-.06l.9-1.44,2.21-3.83,10.95-18.54Zm3.35,13.76,10.95-18.54-14.3,4.78-7.47,2.51-11.31,3.77-10.17,3.47-.84.24-6.58,2.22-29.31,9.87-396.37,133-34,34.22,6.58,6.52L662,544.11l22.73-7.66,8.14-2.69,2.45-.84,9.93-3.35,9.27-3.11,7.24-2.39,20.52-6.88Zm24.83,8.38-24.83-8.38-3.17-1.08L712,507l-16.69-5.63-6.82-2.27-4.25-1.44-14.95-5L474,426.8l-23.51,23.63,198,66.7L673,525.38l11.66,4,7,2.39h.06l3.59,1.2,6.64,2.21,12.74,4.31,19.68,6.64-12.62-22Zm-27.58,22.25-.18-13-.18-12.32V511l-.06-3.29-.18-12.68-.48-38.64-3.11-235.7-16-16.09-14,14.06,3.17,238.86.54,40.08.06,7.42v1.14l.18,12.92v.06l.18,10.17.06,7.12.36,27.34,12.68-21.48,17.35,30.33Zm7.06-15.37,20.52-6.88-24.83-8.38,10.95-18.54-14.3,4.78-.48-38.64-3.11-235.7-16-16.09-14,14.06,3.17,238.86.54,40.08-14.95-5L474,426.8l-23.51,23.63,198,66.7-396.37,133-34,34.22,6.58,6.52L662,544.11l22.73-7.66.36,27.34,12.68-21.48,17.35,30.33-.42-33.2,19.68,6.64Zm0,0,20.52-6.88-24.83-8.38,10.95-18.54-14.3,4.78-.48-38.64-3.11-235.7-16-16.09-14,14.06,3.17,238.86.54,40.08-14.95-5L474,426.8l-23.51,23.63,198,66.7-396.37,133-34,34.22,6.58,6.52L662,544.11l22.73-7.66.36,27.34,12.68-21.48,17.35,30.33-.42-33.2,19.68,6.64Zm0,0,20.52-6.88-24.83-8.38,10.95-18.54-14.3,4.78-.48-38.64-3.11-235.7-16-16.09-14,14.06,3.17,238.86.54,40.08-14.95-5L474,426.8l-23.51,23.63,198,66.7-396.37,133-34,34.22,6.58,6.52L662,544.11l22.73-7.66.36,27.34,12.68-21.48,17.35,30.33-.42-33.2,19.68,6.64Zm0,0,20.52-6.88-24.83-8.38,10.95-18.54-14.3,4.78-.48-38.64-3.11-235.7-16-16.09-14,14.06,3.17,238.86.54,40.08-14.95-5L474,426.8l-23.51,23.63,198,66.7-396.37,133-34,34.22,6.58,6.52L662,544.11l22.73-7.66.36,27.34,12.68-21.48,17.35,30.33-.42-33.2,19.68,6.64Zm249.1-83.63-23.51-23.69L710,177.7l-8.92-9-.3-.36-6.22-6.88L691,165.74,680,176.8,442.31,416.15l-23.45,23.63L175.8,684.51,449.36,956.15l252-253.64L939.42,956.45l273.86-271.94ZM522.59,840,685.12,563.85l1.5,111Zm211.82-293.9-19.68-6.64.42,33.2,148.3,259L716.53,675l-1.38-102.35L697.8,542.31l-12.68,21.48-.36-27.34L662,544.11,446.19,910.81,224.68,690.91l-6.58-6.52,34-34.22L450.44,450.43,474,426.8,680.57,218.68l14-14.06,16,16.09L915.79,427.39,728.43,490.27l-10.95,18.54,24.83,8.38L939.24,451l197.65,199L742.31,517.19l-20.52,6.88,12.62,22,430,144.83L943.13,910.69Z"/></svg>
